<svg width="46" height="46" viewBox="0 0 46 46" fill="none" xmlns="http://www.w3.org/2000/svg">
<path d="M38.1277 41H7.87234C6.34043 41 5 39.6077 5 38.0166V7.98343C5 6.39227 6.34043 5 7.87234 5H38.1277C39.6596 5 41 6.39227 41 7.98343V38.0166C41 39.6077 39.6596 41 38.1277 41Z" fill="#4498EE" stroke="#4498EE" stroke-width="2" stroke-miterlimit="10"/>
<path d="M5 7.98343V11H41V7.98343C41 6.39227 39.6596 5 38.1277 5H7.87234C6.34043 5 5 6.39227 5 7.98343Z" fill="#4480D5" stroke="#4480D5" stroke-width="2" stroke-miterlimit="10"/>
<path d="M35.6757 20H10.3243C9.56757 20 9 19.4167 9 18.6389V17.3611C9 16.5833 9.56757 16 10.3243 16H35.6757C36.4324 16 37 16.5833 37 17.3611V18.6389C37 19.2222 36.4324 20 35.6757 20Z" fill="white" stroke="white" stroke-width="2" stroke-miterlimit="10"/>
<path d="M19.6757 29H10.3243C9.56757 29 9 28.4167 9 27.6389V26.3611C9 25.5833 9.56757 25 10.3243 25H19.6757C20.4324 25 21 25.5833 21 26.3611V27.6389C21 28.2222 20.4324 29 19.6757 29Z" fill="white" stroke="white" stroke-width="2" stroke-miterlimit="10"/>
<path d="M35.6757 29H26.3243C25.5676 29 25 28.4167 25 27.6389V26.3611C25 25.5833 25.5676 25 26.3243 25H35.6757C36.4324 25 37 25.5833 37 26.3611V27.6389C37 28.2222 36.4324 29 35.6757 29Z" fill="white" stroke="white" stroke-width="2" stroke-miterlimit="10"/>
<path d="M35.6757 37H10.3243C9.56757 37 9 36.4167 9 35.6389V34.3611C9 33.5833 9.56757 33 10.3243 33H35.6757C36.4324 33 37 33.5833 37 34.3611V35.6389C37 36.2222 36.4324 37 35.6757 37Z" fill="#4480D5" stroke="#4480D5" stroke-width="2" stroke-miterlimit="10"/>
<path d="M35.6757 38H10.3243C9.56757 38 9 37.4167 9 36.6389V35.3611C9 34.5833 9.56757 34 10.3243 34H35.6757C36.4324 34 37 34.5833 37 35.3611V36.6389C37 37.2222 36.4324 38 35.6757 38Z" fill="#67B2FF" stroke="#67B2FF" stroke-width="2" stroke-miterlimit="10"/>
</svg>
