<svg width="46" height="46" viewBox="0 0 46 46" fill="none" xmlns="http://www.w3.org/2000/svg">
<path d="M5.02765 9C3.92166 9 3 9.9589 3 11.1096V34.8904C3 36.0411 3.92166 37 5.02765 37H40.9723C42.0783 37 43 36.0411 43 34.8904V11.1096C43 9.9589 42.0783 9 40.9723 9H5.02765Z" stroke="black" stroke-width="2" stroke-miterlimit="10"/>
<path d="M23 30C26.866 30 30 26.866 30 23C30 19.134 26.866 16 23 16C19.134 16 16 19.134 16 23C16 26.866 19.134 30 23 30Z" stroke="black" stroke-width="2" stroke-miterlimit="10" stroke-linecap="round" stroke-linejoin="round"/>
<path d="M3 29C7.15847 29 10.5937 32.4721 10.5937 36.6752" stroke="black" stroke-width="2" stroke-miterlimit="10" stroke-linecap="round" stroke-linejoin="round"/>
<path d="M42.5938 16.6752C38.4353 16.6752 35 13.2031 35 8.99999" stroke="black" stroke-width="2" stroke-miterlimit="10" stroke-linecap="round" stroke-linejoin="round"/>
<path d="M35 36.5938C35 32.4353 38.4721 29 42.6752 29" stroke="black" stroke-width="2" stroke-miterlimit="10" stroke-linecap="round" stroke-linejoin="round"/>
<path d="M10.6753 9.08148C10.6753 13.24 7.20316 16.6752 3.00005 16.6752" stroke="black" stroke-width="2" stroke-miterlimit="10" stroke-linecap="round" stroke-linejoin="round"/>
</svg>
