<svg width="42" height="30" viewBox="0 0 42 30" fill="none" xmlns="http://www.w3.org/2000/svg">
<rect width="42" height="30" rx="4" fill="#4498EE"/>
<path fill-rule="evenodd" clip-rule="evenodd" d="M10.6264 0H4C1.79086 0 0 1.79086 0 4V10.6264V20.3736V26C0 28.2091 1.79086 30 4 30H10.8681H30.1319H38C40.2091 30 42 28.2091 42 26V20.7517V10.2483V4C42 1.79086 40.2091 0 38 0H30.3736H10.6264ZM30.1078 27.1428H10.8922C10.321 23.5832 7.53958 20.7622 4 20.1319V10.8681C7.86521 10.1799 10.8264 6.87923 10.9926 2.85712H30.0074C30.1877 7.21975 33.6562 10.7336 38 10.9855V20.0145C33.9936 20.2469 30.7318 23.2541 30.1078 27.1428Z" fill="#4480D5"/>
<circle cx="20.5" cy="14.5" r="8.5" fill="#4480D5"/>
<circle cx="20.5" cy="15.5" r="8.5" fill="white"/>
</svg>
