<svg width="42" height="30" viewBox="0 0 42 30" fill="none" xmlns="http://www.w3.org/2000/svg">
<rect width="42" height="30" rx="4" fill="#4498EE"/>
<path d="M5 19L22 19C22.5523 19 23 18.5523 23 18C23 17.4477 22.5523 17 22 17L5 17C4.44771 17 4 17.4477 4 18C4 18.5523 4.44771 19 5 19Z" fill="white"/>
<path d="M5 24L15 24C15.5523 24 16 23.5523 16 23C16 22.4477 15.5523 22 15 22L5 22C4.44771 22 4 22.4477 4 23C4 23.5523 4.44771 24 5 24Z" fill="white"/>
<rect y="7" width="42" height="6" fill="#4480D5"/>
<path fill-rule="evenodd" clip-rule="evenodd" d="M27 16C27 15.4477 27.4477 15 28 15H37C37.5523 15 38 15.4477 38 16V25C38 25.5523 37.5523 26 37 26H28C27.4477 26 27 25.5523 27 25V16ZM29 17V24H36V17H29Z" fill="#4480D5"/>
<path d="M31 20C31 19.4477 31.4477 19 32 19H33C33.5523 19 34 19.4477 34 20V21C34 21.5523 33.5523 22 33 22H32C31.4477 22 31 21.5523 31 21V20Z" fill="#1E65AE"/>
<path d="M28 17H37V26H28V17Z" stroke="white" stroke-width="2" stroke-linecap="round" stroke-linejoin="round"/>
<rect x="31" y="20" width="3" height="3" rx="1" fill="white"/>
</svg>
